#Comment line ignore any data following # character 
#Hierarchical Translation and Rotation (.htr) file 
[Header]	
#Header keywords are followed by a single value 
FileType HTR		#Single word string
DataType HTRS		#Translation followed by rotation and scale data
FileVersion 1		#integer
NumSegments 84		#integer
NumFrames 2		#integer
DataFrameRate 30		#integer, data frame rate in this file
EulerRotationOrder ZYX
CalibrationUnits mm
RotationUnits Degrees
GlobalAxisofGravity Y
BoneLengthAxis Y
ScaleFactor 1.00
[SegmentNames&Hierarchy]
#CHILD	PARENT
MASTER GLOBAL
root MASTER
chest root
L_mid_tent01 root
R_mid_tent01 root
spine01 root
Bip01_Neck chest
L_humerus chest
R_humerus chest
weapon_bone chest
Bip01_Head Bip01_Neck
eye_left_bone Bip01_Head
eye_right_bone Bip01_Head
L_forearm L_humerus
L_front_hand L_forearm
L_weapon_bone L_forearm
L_front_hand01_01 L_front_hand
L_front_hand02_01 L_front_hand
L_front_hand03_01 L_front_hand
L_front_hand01_02 L_front_hand01_01
L_front_hand02_02 L_front_hand02_01
L_front_hand03_02 L_front_hand03_01
R_forearm R_humerus
R_front_hand R_forearm
R_weapon_bone R_forearm
R_front_hand01_01 R_front_hand
R_front_hand02_01 R_front_hand
R_front_hand03_01 R_front_hand
R_front_hand01_02 R_front_hand01_01
R_front_hand02_02 R_front_hand02_01
R_front_hand03_02 R_front_hand03_01
null_rope01_connect L_mid_tent01
Rope1_Seg01 null_rope01_connect
Rope1_Seg02 Rope1_Seg01
Rope1_Seg03 Rope1_Seg02
Rope1_Seg04 Rope1_Seg03
Rope1_Seg05 Rope1_Seg04
Rope1_Seg06 Rope1_Seg05
Rope1_Seg07 Rope1_Seg06
Rope1_Seg09 Rope1_Seg07
L_mid_hand01 Rope1_Seg09
L_mid_hand02 Rope1_Seg09
L_mid_hand03 Rope1_Seg09
null_rope02_connect R_mid_tent01
Rope2_Seg01 null_rope02_connect
Rope2_Seg02 Rope2_Seg01
Rope2_Seg03 Rope2_Seg02
Rope2_Seg04 Rope2_Seg03
Rope2_Seg05 Rope2_Seg04
Rope2_Seg06 Rope2_Seg05
Rope2_Seg07 Rope2_Seg06
Rope2_Seg09 Rope2_Seg07
R_mid_hand01 Rope2_Seg09
R_mid_hand02 Rope2_Seg09
R_mid_hand03 Rope2_Seg09
spine02 spine01
spine03 spine02
pelvis spine03
null_rope03_connect pelvis
null_rope04_connect pelvis
Rope3_Seg01 null_rope03_connect
Rope3_Seg02 Rope3_Seg01
Rope3_Seg03 Rope3_Seg02
Rope3_Seg04 Rope3_Seg03
Rope3_Seg05 Rope3_Seg04
Rope3_Seg06 Rope3_Seg05
Rope3_Seg07 Rope3_Seg06
Rope3_Seg08 Rope3_Seg07
Rope3_Seg09 Rope3_Seg08
R_rear_hand01 Rope3_Seg09
R_rear_hand02 Rope3_Seg09
R_rear_hand03 Rope3_Seg09
Rope4_Seg01 null_rope04_connect
Rope4_Seg02 Rope4_Seg01
Rope4_Seg03 Rope4_Seg02
Rope4_Seg04 Rope4_Seg03
Rope4_Seg05 Rope4_Seg04
Rope4_Seg06 Rope4_Seg05
Rope4_Seg07 Rope4_Seg06
Rope4_Seg08 Rope4_Seg07
Rope4_Seg09 Rope4_Seg08
L_rear_hand01 Rope4_Seg09
L_rear_hand02 Rope4_Seg09
L_rear_hand03 Rope4_Seg09
[BasePosition]
#SegmentName Tx, Ty, Tz, Rx, Ry, Rz, BoneLength
MASTER 0.000000 0.000000 0.000000 -90.000000 0.000000 0.000000 10.000000 
root 0.000000 0.000000 0.000000 0.000000 0.000000 0.000000 10.000000 
chest 0.000000 0.000000 0.000000 0.000000 0.000000 0.000000 10.000000 
L_mid_tent01 0.000000 0.000000 0.000000 0.000000 0.000000 0.000000 10.000000 
R_mid_tent01 0.000000 0.000000 0.000000 0.000000 0.000000 0.000000 10.000000 
spine01 0.000000 0.000000 0.000000 0.000000 0.000000 0.000000 10.000000 
Bip01_Neck 0.000000 0.000000 0.000000 0.000000 0.000000 0.000000 10.000000 
L_humerus 0.000000 0.000000 0.000000 0.000000 0.000000 0.000000 10.000000 
R_humerus 0.000000 0.000000 0.000000 0.000000 0.000000 0.000000 10.000000 
weapon_bone 0.000000 0.000000 0.000000 0.000000 0.000000 0.000000 10.000000 
Bip01_Head 0.000000 0.000000 0.000000 0.000000 0.000000 0.000000 10.000000 
eye_left_bone 0.000000 0.000000 0.000000 0.000000 0.000000 0.000000 10.000000 
eye_right_bone 0.000000 0.000000 0.000000 0.000000 0.000000 0.000000 10.000000 
L_forearm 0.000000 0.000000 0.000000 0.000000 0.000000 0.000000 10.000000 
L_front_hand 0.000000 0.000000 0.000000 0.000000 0.000000 0.000000 10.000000 
L_weapon_bone 0.000000 0.000000 0.000000 0.000000 0.000000 0.000000 10.000000 
L_front_hand01_01 0.000000 0.000000 0.000000 0.000000 0.000000 0.000000 10.000000 
L_front_hand02_01 0.000000 0.000000 0.000000 0.000000 0.000000 0.000000 10.000000 
L_front_hand03_01 0.000000 0.000000 0.000000 0.000000 0.000000 0.000000 10.000000 
L_front_hand01_02 0.000000 0.000000 0.000000 0.000000 0.000000 0.000000 10.000000 
L_front_hand02_02 0.000000 0.000000 0.000000 0.000000 0.000000 0.000000 10.000000 
L_front_hand03_02 0.000000 0.000000 0.000000 0.000000 0.000000 0.000000 10.000000 
R_forearm 0.000000 0.000000 0.000000 0.000000 0.000000 0.000000 10.000000 
R_front_hand 0.000000 0.000000 0.000000 0.000000 0.000000 0.000000 10.000000 
R_weapon_bone 0.000000 0.000000 0.000000 0.000000 0.000000 0.000000 10.000000 
R_front_hand01_01 0.000000 0.000000 0.000000 0.000000 0.000000 0.000000 10.000000 
R_front_hand02_01 0.000000 0.000000 0.000000 0.000000 0.000000 0.000000 10.000000 
R_front_hand03_01 0.000000 0.000000 0.000000 0.000000 0.000000 0.000000 10.000000 
R_front_hand01_02 0.000000 0.000000 0.000000 0.000000 0.000000 0.000000 10.000000 
R_front_hand02_02 0.000000 0.000000 0.000000 0.000000 0.000000 0.000000 10.000000 
R_front_hand03_02 0.000000 0.000000 0.000000 0.000000 0.000000 0.000000 10.000000 
null_rope01_connect 0.000000 0.000000 0.000000 0.000000 0.000000 0.000000 10.000000 
Rope1_Seg01 0.000000 0.000000 0.000000 0.000000 0.000000 0.000000 10.000000 
Rope1_Seg02 0.000000 0.000000 0.000000 0.000000 0.000000 0.000000 10.000000 
Rope1_Seg03 0.000000 0.000000 0.000000 0.000000 0.000000 0.000000 10.000000 
Rope1_Seg04 0.000000 0.000000 0.000000 0.000000 0.000000 0.000000 10.000000 
Rope1_Seg05 0.000000 0.000000 0.000000 0.000000 0.000000 0.000000 10.000000 
Rope1_Seg06 0.000000 0.000000 0.000000 0.000000 0.000000 0.000000 10.000000 
Rope1_Seg07 0.000000 0.000000 0.000000 0.000000 0.000000 0.000000 10.000000 
Rope1_Seg09 0.000000 0.000000 0.000000 0.000000 0.000000 0.000000 10.000000 
L_mid_hand01 0.000000 0.000000 0.000000 0.000000 0.000000 0.000000 10.000000 
L_mid_hand02 0.000000 0.000000 0.000000 0.000000 0.000000 0.000000 10.000000 
L_mid_hand03 0.000000 0.000000 0.000000 0.000000 0.000000 0.000000 10.000000 
null_rope02_connect 0.000000 0.000000 0.000000 0.000000 0.000000 0.000000 10.000000 
Rope2_Seg01 0.000000 0.000000 0.000000 0.000000 0.000000 0.000000 10.000000 
Rope2_Seg02 0.000000 0.000000 0.000000 0.000000 0.000000 0.000000 10.000000 
Rope2_Seg03 0.000000 0.000000 0.000000 0.000000 0.000000 0.000000 10.000000 
Rope2_Seg04 0.000000 0.000000 0.000000 0.000000 0.000000 0.000000 10.000000 
Rope2_Seg05 0.000000 0.000000 0.000000 0.000000 0.000000 0.000000 10.000000 
Rope2_Seg06 0.000000 0.000000 0.000000 0.000000 0.000000 0.000000 10.000000 
Rope2_Seg07 0.000000 0.000000 0.000000 0.000000 0.000000 0.000000 10.000000 
Rope2_Seg09 0.000000 0.000000 0.000000 0.000000 0.000000 0.000000 10.000000 
R_mid_hand01 0.000000 0.000000 0.000000 0.000000 0.000000 0.000000 10.000000 
R_mid_hand02 0.000000 0.000000 0.000000 0.000000 0.000000 0.000000 10.000000 
R_mid_hand03 0.000000 0.000000 0.000000 0.000000 0.000000 0.000000 10.000000 
spine02 0.000000 0.000000 0.000000 0.000000 0.000000 0.000000 10.000000 
spine03 0.000000 0.000000 0.000000 0.000000 0.000000 0.000000 10.000000 
pelvis 0.000000 0.000000 0.000000 0.000000 0.000000 0.000000 10.000000 
null_rope03_connect 0.000000 0.000000 0.000000 0.000000 0.000000 0.000000 10.000000 
null_rope04_connect 0.000000 0.000000 0.000000 0.000000 0.000000 0.000000 10.000000 
Rope3_Seg01 0.000000 0.000000 0.000000 0.000000 0.000000 0.000000 10.000000 
Rope3_Seg02 0.000000 0.000000 0.000000 0.000000 0.000000 0.000000 10.000000 
Rope3_Seg03 0.000000 0.000000 0.000000 0.000000 0.000000 0.000000 10.000000 
Rope3_Seg04 0.000000 0.000000 0.000000 0.000000 0.000000 0.000000 10.000000 
Rope3_Seg05 0.000000 0.000000 0.000000 0.000000 0.000000 0.000000 10.000000 
Rope3_Seg06 0.000000 0.000000 0.000000 0.000000 0.000000 0.000000 10.000000 
Rope3_Seg07 0.000000 0.000000 0.000000 0.000000 0.000000 0.000000 10.000000 
Rope3_Seg08 0.000000 0.000000 0.000000 0.000000 0.000000 0.000000 10.000000 
Rope3_Seg09 0.000000 0.000000 0.000000 0.000000 0.000000 0.000000 10.000000 
R_rear_hand01 0.000000 0.000000 0.000000 0.000000 0.000000 0.000000 10.000000 
R_rear_hand02 0.000000 0.000000 0.000000 0.000000 0.000000 0.000000 10.000000 
R_rear_hand03 0.000000 0.000000 0.000000 0.000000 0.000000 0.000000 10.000000 
Rope4_Seg01 0.000000 0.000000 0.000000 0.000000 0.000000 0.000000 10.000000 
Rope4_Seg02 0.000000 0.000000 0.000000 0.000000 0.000000 0.000000 10.000000 
Rope4_Seg03 0.000000 0.000000 0.000000 0.000000 0.000000 0.000000 10.000000 
Rope4_Seg04 0.000000 0.000000 0.000000 0.000000 0.000000 0.000000 10.000000 
Rope4_Seg05 0.000000 0.000000 0.000000 0.000000 0.000000 0.000000 10.000000 
Rope4_Seg06 0.000000 0.000000 0.000000 0.000000 0.000000 0.000000 10.000000 
Rope4_Seg07 0.000000 0.000000 0.000000 0.000000 0.000000 0.000000 10.000000 
Rope4_Seg08 0.000000 0.000000 0.000000 0.000000 0.000000 0.000000 10.000000 
Rope4_Seg09 0.000000 0.000000 0.000000 0.000000 0.000000 0.000000 10.000000 
L_rear_hand01 0.000000 0.000000 0.000000 0.000000 0.000000 0.000000 10.000000 
L_rear_hand02 0.000000 0.000000 0.000000 0.000000 0.000000 0.000000 10.000000 
L_rear_hand03 0.000000 0.000000 0.000000 0.000000 0.000000 0.000000 10.000000 
#Beginning of Data. Separated by tabs
#Fr	Tx	Ty	Tz	Rx	Ry	Rz	SF
[MASTER]
35 -0.001682 11627.681641 -166.022125 0.001660 0.001660 0.001660 11628.867188
36 -0.001700 11697.695313 -158.744156 0.001660 0.001660 0.001660 11698.772461
[root]
35 -16.502295 -51.542747 1491.480225 -91.644669 -25.163296 -89.859161 1492.461792
36 -16.502296 -39.981438 1483.184692 -91.660316 -22.582743 -89.748001 1483.815186
[chest]
35 -84.512650 -34.090519 0.000000 -1.427678 1.453714 -171.484222 91.129311
36 -84.512650 -34.090519 0.000000 -1.564437 1.255820 -174.234009 91.129311
[L_mid_tent01]
35 27.299675 22.179478 -249.918701 5.653574 57.984127 46.267735 252.381760
36 27.299690 22.179487 -249.918701 -1.764227 52.550983 37.800129 252.381775
[R_mid_tent01]
35 23.228794 24.509907 226.238495 178.328613 -63.382614 43.166000 228.744751
36 23.228794 24.509907 226.238495 -176.623657 -57.512077 37.661518 228.744751
[spine01]
35 -0.361383 -0.195265 0.000000 0.001973 0.001271 24.401712 0.410763
36 -0.361383 -0.195265 0.000000 0.001968 0.001279 23.978519 0.410763
[Bip01_Neck]
35 165.484543 71.581718 0.000119 176.643677 -1.657967 43.431911 180.302734
36 165.484543 71.581718 0.000119 176.643677 -1.657967 43.431911 180.302734
[L_humerus]
35 -13.983130 -135.272980 -120.471481 -5.731517 68.189537 84.290672 181.680161
36 -13.983130 -135.272980 -120.471481 -5.671666 68.382523 84.358849 181.680161
[R_humerus]
35 -13.983309 -135.273102 125.287651 27.520140 -69.179993 68.138298 184.909012
36 -13.983309 -135.273102 125.287651 27.613783 -69.383011 68.040703 184.909012
[weapon_bone]
35 235.964890 -300.705902 0.000000 0.000000 -89.951546 -128.212341 382.234833
36 235.964890 -300.705902 0.000000 0.000000 -89.951546 -128.212341 382.234833
[Bip01_Head]
35 213.404770 185.825439 10.355940 5.038980 3.857676 -43.880005 283.160614
36 213.414063 185.798706 10.699866 5.019834 3.572640 -43.883732 283.162842
[eye_left_bone]
35 -24.626970 125.451866 -64.772606 0.000000 -90.000000 -99.840431 143.318359
36 -24.626970 125.451866 -64.772606 0.000000 -90.000000 -99.840431 143.318359
[eye_right_bone]
35 -24.626970 125.451866 64.327362 0.000000 -89.965736 80.156380 143.117676
36 -24.626970 125.451866 64.327362 0.000000 -89.965736 80.156380 143.117676
[L_forearm]
35 322.776093 0.000000 -0.000119 0.000401 -0.002313 -109.650063 322.776093
36 322.776093 0.000000 -0.000119 0.000399 -0.002313 -109.593559 322.776093
[L_front_hand]
35 241.149185 -0.042021 -3.300071 -178.667953 -1.835447 -27.422350 241.171753
36 241.149185 -0.042021 -3.300071 -178.667953 -1.835447 -27.422350 241.171753
[L_weapon_bone]
35 156.183838 0.000000 0.000000 0.000014 0.000007 0.000001 156.183838
36 156.183838 0.000000 0.000000 0.000014 0.000007 0.000001 156.183838
[L_front_hand01_01]
35 86.095154 20.947098 -0.655860 -0.366594 -0.477154 75.385574 88.609184
36 86.095154 20.947098 -0.655860 -0.366594 -0.477154 75.385574 88.609184
[L_front_hand02_01]
35 86.935165 -11.437475 24.513514 154.399796 -59.883835 -61.369587 91.046425
36 86.935165 -11.437475 24.513514 154.399796 -59.883835 -61.369587 91.046425
[L_front_hand03_01]
35 86.637497 -14.123976 -20.424902 -153.913849 58.118130 -62.702866 90.126129
36 86.637497 -14.123976 -20.424902 -153.913849 58.118130 -62.702866 90.126129
[L_front_hand01_02]
35 71.020905 -0.000179 0.000030 0.000332 -0.002324 -106.240639 71.020905
36 71.020905 -0.000179 0.000030 0.000332 -0.002324 -106.274635 71.020905
[L_front_hand02_02]
35 71.020927 -0.000119 0.000060 0.000332 -0.002324 -106.240639 71.020927
36 71.020927 -0.000119 0.000060 0.000332 -0.002324 -106.274635 71.020927
[L_front_hand03_02]
35 71.020905 -0.000060 0.000060 0.000332 -0.002324 -106.240639 71.020905
36 71.020905 -0.000060 0.000060 0.000332 -0.002324 -106.274635 71.020905
[R_forearm]
35 322.776428 -0.000060 0.000030 0.201970 0.065567 -108.294846 322.776428
36 322.776428 -0.000060 0.000030 0.202002 0.065470 -108.239906 322.776428
[R_front_hand]
35 238.847015 -0.006795 2.210259 -2.635298 -10.645461 -26.312506 238.857239
36 238.847015 -0.006795 2.210259 -2.635298 -10.645461 -26.312506 238.857239
[R_weapon_bone]
35 155.664093 0.002503 -0.000030 0.003487 0.001180 -90.988930 155.664078
36 155.664093 0.002503 -0.000030 0.003487 0.001180 -90.988930 155.664078
[R_front_hand01_01]
35 87.624611 14.231146 22.918642 -154.633499 -59.950619 61.746044 91.683487
36 87.624611 14.231146 22.918642 -154.633499 -59.950619 61.746044 91.683487
[R_front_hand02_01]
35 89.356956 14.367283 -19.491137 154.602661 58.302849 63.744389 92.579636
36 89.356956 14.367283 -19.491137 154.602661 58.302849 63.744389 92.579636
[R_front_hand03_01]
35 87.286232 -22.307278 -0.143439 0.162155 -0.423168 -75.767921 90.091743
36 87.286232 -22.307278 -0.143439 0.162155 -0.423168 -75.767921 90.091743
[R_front_hand01_02]
35 71.020905 0.000060 0.000119 0.002323 -0.000334 106.381714 71.020905
36 71.020905 0.000060 0.000119 0.002323 -0.000334 106.381714 71.020905
[R_front_hand02_02]
35 71.020844 -0.000030 -0.000119 0.002323 -0.000334 106.381714 71.020836
36 71.020844 -0.000030 -0.000119 0.002323 -0.000334 106.381714 71.020836
[R_front_hand03_02]
35 71.020905 0.000000 0.000030 0.002323 -0.000334 106.381714 71.020905
36 71.020905 0.000000 0.000030 0.002323 -0.000334 106.381714 71.020905
[null_rope01_connect]
35 328.732483 0.000000 -0.000238 -105.231194 -30.918491 177.987823 328.732483
36 328.732483 0.000000 -0.000238 -108.443916 -36.591381 -176.977356 328.732483
[Rope1_Seg01]
35 -0.000007 -0.000015 0.000029 14.116558 7.715026 -107.548485 0.000033
36 -0.000006 -0.000013 0.000025 13.499069 6.690858 -106.479256 0.000029
[Rope1_Seg02]
35 139.999863 -0.000179 0.000000 13.852384 0.945049 -6.813002 139.999863
36 139.999863 -0.000179 0.000000 11.195479 0.791155 -6.170518 139.999863
[Rope1_Seg03]
35 139.999924 0.000060 -0.000060 45.403744 -0.350901 -11.044351 139.999924
36 139.999924 0.000060 -0.000060 35.116943 0.364044 -10.433517 139.999924
[Rope1_Seg04]
35 139.999924 -0.000060 -0.000119 44.852409 -8.741178 -6.953331 139.999924
36 139.999924 -0.000060 -0.000119 32.184631 -5.099934 -4.860950 139.999924
[Rope1_Seg05]
35 139.999832 0.000119 -0.000060 -31.305134 7.448193 6.968540 139.999832
36 139.999832 0.000119 -0.000060 -36.350235 7.288978 10.377302 139.999832
[Rope1_Seg06]
35 139.999954 0.000119 -0.000060 -14.362346 1.235472 8.468325 139.999954
36 139.999954 0.000119 -0.000060 -8.831887 -0.951239 7.476468 139.999954
[Rope1_Seg07]
35 139.999985 0.000060 0.000000 -4.789431 -0.866994 4.935097 139.999985
36 139.999985 0.000060 0.000000 -3.226670 -1.342864 4.295719 139.999985
[Rope1_Seg09]
35 121.602913 0.000119 -0.000089 -89.793175 -1.359789 0.847147 121.602913
36 121.602913 0.000119 -0.000089 -89.793175 -1.359789 0.847147 121.602913
[L_mid_hand01]
35 103.859421 1.038730 8.195221 130.544373 -67.584534 -38.866943 104.187431
36 103.859421 1.038730 8.195221 130.544373 -67.584534 -38.866943 104.187431
[L_mid_hand02]
35 105.572853 -4.139662 -10.864139 -168.923172 43.409309 -73.498886 106.211075
36 105.572853 -4.139662 -10.864139 -168.923172 43.409309 -73.498886 106.211075
[L_mid_hand03]
35 104.641464 17.579376 -3.913581 -6.012627 17.808178 74.893677 106.179977
36 104.641464 17.579376 -3.913581 -6.012627 17.808174 74.893669 106.179977
[null_rope02_connect]
35 328.732849 0.000179 -0.000119 -105.480782 27.545549 2.273161 328.732849
36 328.732849 0.000179 -0.000119 -108.214142 33.272949 -0.565017 328.732849
[Rope2_Seg01]
35 0.000069 0.000029 0.000000 90.035149 7.946584 -71.398415 0.000075
36 0.000070 0.000025 0.000000 91.965935 9.318639 -70.843552 0.000074
[Rope2_Seg02]
35 139.999741 -0.000060 -0.000119 -7.091158 7.064934 0.362690 139.999756
36 139.999741 -0.000060 -0.000119 -9.110840 6.564256 1.615119 139.999756
[Rope2_Seg03]
35 140.000107 0.000030 0.000000 -17.321814 9.300015 1.694142 140.000107
36 140.000107 0.000030 0.000000 -19.695595 8.872038 3.267779 140.000107
[Rope2_Seg04]
35 139.999802 0.000000 -0.000060 -30.025990 7.796592 4.099282 139.999802
36 139.999802 0.000000 -0.000060 -16.089125 3.729578 3.778135 139.999802
[Rope2_Seg05]
35 139.999985 -0.000060 0.000119 17.924801 -2.222859 -3.970151 139.999985
36 139.999985 -0.000060 0.000119 20.944777 -6.436343 -5.980925 139.999985
[Rope2_Seg06]
35 139.999893 -0.000030 -0.000119 14.083454 -3.327729 -3.076873 139.999893
36 139.999893 -0.000030 -0.000119 8.430855 -5.428802 -2.057004 139.999893
[Rope2_Seg07]
35 139.999893 0.000060 -0.000060 6.162844 -2.209570 -1.251719 139.999893
36 139.999893 0.000060 -0.000060 3.770339 -3.662761 -0.693239 139.999893
[Rope2_Seg09]
35 121.338966 0.000089 -0.000060 33.793236 -1.359788 -0.847141 121.338966
36 121.338966 0.000089 -0.000060 33.793236 -1.359788 -0.847141 121.338966
[R_mid_hand01]
35 104.680779 11.144459 -10.335981 -16.212063 45.237247 70.462852 105.778534
36 104.680779 11.144459 -10.335981 -16.212063 45.237247 70.462852 105.778534
[R_mid_hand02]
35 104.070427 2.443552 8.231699 49.067368 -67.749771 39.286453 104.424065
36 104.070427 2.443552 8.231699 49.067368 -67.749771 39.286453 104.424065
[R_mid_hand03]
35 106.028137 -11.221827 -5.996406 -177.101105 15.551026 -76.585571 106.788818
36 106.028137 -11.221827 -5.996406 -177.101105 15.551026 -76.585571 106.788818
[spine02]
35 129.756927 0.001550 0.000119 0.381701 -4.042590 -13.249550 129.756927
36 129.756927 0.001550 0.000119 0.376072 -4.043172 -13.159685 129.756927
[spine03]
35 78.614418 0.081605 -4.898993 1.908422 3.827089 16.683424 78.766960
36 78.614426 0.081609 -4.898992 1.905060 3.828187 16.631647 78.766968
[pelvis]
35 169.435242 0.051022 0.000000 -0.061143 -0.179997 14.519093 169.435257
36 169.435242 0.051022 0.000000 -0.060943 -0.180064 14.391955 169.435257
[null_rope03_connect]
35 -1.257226 -2.466202 137.391083 0.000000 -89.545433 72.841377 137.418976
36 -1.257226 -2.466202 137.391083 0.000000 -89.563889 70.769295 137.418976
[null_rope04_connect]
35 -1.259640 -2.480268 -137.844437 0.000000 -89.545433 72.841377 137.872513
36 -1.259640 -2.480268 -137.844437 0.000000 -89.563889 70.769295 137.872513
[Rope3_Seg01]
35 -0.000030 0.000000 -0.000124 -127.992149 20.098505 -67.228539 0.000127
36 -0.000030 0.000000 -0.000127 -129.096817 22.530375 -70.398689 0.000131
[Rope3_Seg02]
35 139.999924 -0.000119 0.000060 0.939266 -9.645277 0.711597 139.999924
36 139.999924 -0.000119 0.000060 0.411061 -8.691442 0.029933 139.999924
[Rope3_Seg03]
35 139.999924 -0.000119 0.000119 2.518363 -14.192266 1.727089 139.999924
36 139.999924 -0.000119 0.000119 1.837963 -14.092233 0.666590 139.999924
[Rope3_Seg04]
35 139.999924 0.000119 0.000000 2.879968 -10.788741 1.140932 139.999924
36 139.999924 0.000119 0.000000 1.879777 -8.705569 -0.106723 139.999924
[Rope3_Seg05]
35 139.999924 -0.000238 0.000060 -1.468523 3.351567 -2.713590 139.999924
36 139.999924 -0.000238 0.000060 -2.894623 9.697766 -3.407056 139.999924
[Rope3_Seg06]
35 139.999893 -0.000119 -0.000060 0.016208 0.496493 -1.205053 139.999893
36 139.999893 -0.000119 -0.000060 -0.645580 3.980515 -1.535129 139.999893
[Rope3_Seg07]
35 139.999771 0.000060 -0.000119 0.302650 0.097843 -0.819078 139.999771
36 139.999771 0.000060 -0.000119 -0.135409 2.577497 -1.035305 139.999771
[Rope3_Seg08]
35 139.999985 -0.000060 0.000000 0.451612 0.037540 -0.314721 139.999985
36 139.999985 -0.000060 0.000000 0.310051 0.962195 -0.381515 139.999985
[Rope3_Seg09]
35 90.185997 -0.000179 -0.000060 89.793228 -1.359877 -0.847183 90.185997
36 90.185997 -0.000179 -0.000060 89.793228 -1.359877 -0.847183 90.185997
[R_rear_hand01]
35 103.366196 -6.073594 -10.757982 -177.714203 24.565960 -73.910950 104.101845
36 103.366196 -6.073594 -10.757982 -177.714203 24.565960 -73.910950 104.101845
[R_rear_hand02]
35 100.509819 12.039542 -7.992327 -12.874829 36.868488 72.167213 101.543350
36 100.509819 12.039542 -7.992327 -12.874829 36.868488 72.167213 101.543350
[R_rear_hand03]
35 101.539970 5.215704 5.435467 71.484581 -71.816628 21.513813 101.819031
36 101.539970 5.215704 5.435467 71.484581 -71.816628 21.513813 101.819031
[Rope4_Seg01]
35 0.000010 0.000038 -0.000114 53.261898 31.189049 -98.069565 0.000121
36 0.000010 0.000038 -0.000114 53.920067 33.033123 -97.527115 0.000121
[Rope4_Seg02]
35 139.999985 0.000060 0.000119 0.846022 -2.818572 -5.725741 139.999985
36 139.999985 0.000060 0.000119 0.723196 -2.345720 -4.530739 139.999985
[Rope4_Seg03]
35 139.999924 0.000000 -0.000238 0.783832 -3.986626 -10.029900 139.999924
36 139.999924 0.000000 -0.000238 0.849657 -3.171642 -8.043668 139.999924
[Rope4_Seg04]
35 139.999985 0.000000 0.000119 -0.779831 -7.692576 -19.074265 139.999985
36 139.999985 0.000000 0.000119 0.053074 -6.180968 -17.242744 139.999985
[Rope4_Seg05]
35 139.999802 -0.000060 -0.000119 3.238047 -13.338295 3.813284 139.999802
36 139.999802 -0.000060 -0.000119 3.011808 -15.756538 8.043274 139.999802
[Rope4_Seg06]
35 139.999924 0.000000 0.000060 2.221489 -5.362061 1.982581 139.999924
36 139.999924 0.000000 0.000060 2.461833 -5.878739 3.813944 139.999924
[Rope4_Seg07]
35 139.999802 0.000000 0.000000 1.290297 -3.122010 0.644376 139.999802
36 139.999802 0.000000 0.000000 1.489048 -3.230582 1.651985 139.999802
[Rope4_Seg08]
35 139.999924 0.000000 0.000119 -0.712128 -1.791172 0.413458 139.999924
36 139.999924 0.000000 0.000119 -0.592927 -1.823262 0.995441 139.999924
[Rope4_Seg09]
35 90.185791 0.000060 0.000060 -135.617828 2.228885 0.850567 90.185791
36 90.185791 0.000060 0.000060 -135.617828 2.228885 0.850567 90.185791
[L_rear_hand01]
35 101.696655 -8.392275 -7.654577 -12.874829 -36.868488 107.832764 102.329041
36 101.696655 -8.392275 -7.654577 -12.874829 -36.868488 107.832764 102.329041
[L_rear_hand02]
35 102.726799 -1.568258 5.773216 71.484581 71.816628 158.486160 102.900848
36 102.726799 -1.568258 5.773216 71.484581 71.816628 158.486160 102.900848
[L_rear_hand03]
35 104.552910 9.721220 -10.420293 -177.714203 -24.565960 -106.089035 105.519653
36 104.552910 9.721220 -10.420293 -177.714203 -24.565960 -106.089035 105.519653
